<svg width="20" height="21" viewBox="0 0 20 21" fill="none" xmlns="http://www.w3.org/2000/svg">
<path d="M16.6666 10.4731H18.3333V12.1397H16.6666C15.5166 12.1397 14.3833 11.8481 13.3333 11.3064C11.25 12.3897 8.74996 12.3897 6.66663 11.3064C5.61663 11.8481 4.47496 12.1397 3.33329 12.1397H1.66663V10.4731H3.33329C4.49163 10.4731 5.64996 10.0814 6.66663 9.36475C8.69996 10.7897 11.3 10.7897 13.3333 9.36475C14.35 10.0814 15.5083 10.4731 16.6666 10.4731ZM16.6666 5.47308H18.3333V7.13975H16.6666C15.5166 7.13975 14.3833 6.84808 13.3333 6.30641C11.25 7.38975 8.74996 7.38975 6.66663 6.30641C5.61663 6.84808 4.47496 7.13975 3.33329 7.13975H1.66663V5.47308H3.33329C4.49163 5.47308 5.64996 5.08141 6.66663 4.36475C8.69996 5.78975 11.3 5.78975 13.3333 4.36475C14.35 5.08141 15.5083 5.47308 16.6666 5.47308ZM16.6666 15.4731H18.3333V17.1397H16.6666C15.5166 17.1397 14.3833 16.8481 13.3333 16.3064C11.25 17.3897 8.74996 17.3897 6.66663 16.3064C5.61663 16.8481 4.47496 17.1397 3.33329 17.1397H1.66663V15.4731H3.33329C4.49163 15.4731 5.64996 15.0814 6.66663 14.3647C8.69996 15.7897 11.3 15.7897 13.3333 14.3647C14.35 15.0814 15.5083 15.4731 16.6666 15.4731Z" fill="#171E1D"/>
</svg>
