<svg width="20" height="21" viewBox="0 0 20 21" fill="none" xmlns="http://www.w3.org/2000/svg">
<path d="M5.00008 12.1396H6.66675L9.16675 14.6396H7.50008L5.00008 12.1396ZM3.33341 3.80632H4.16675V2.97298C4.16675 2.75197 4.25455 2.54001 4.41083 2.38373C4.56711 2.22745 4.77907 2.13965 5.00008 2.13965H8.33341C8.55443 2.13965 8.76639 2.22745 8.92267 2.38373C9.07895 2.54001 9.16675 2.75197 9.16675 2.97298V3.80632H10.8334V2.97298C10.8334 2.75197 10.9212 2.54001 11.0775 2.38373C11.2338 2.22745 11.4457 2.13965 11.6667 2.13965H15.0001C15.2211 2.13965 15.4331 2.22745 15.5893 2.38373C15.7456 2.54001 15.8334 2.75197 15.8334 2.97298V3.80632H16.6667C17.1088 3.80632 17.5327 3.98191 17.8453 4.29447C18.1578 4.60703 18.3334 5.03095 18.3334 5.47298V16.3063C18.3334 16.7483 18.1578 17.1723 17.8453 17.4848C17.5327 17.7974 17.1088 17.973 16.6667 17.973V18.8063H14.1667V17.973H5.83341V18.8063H3.33341V17.973C2.89139 17.973 2.46746 17.7974 2.1549 17.4848C1.84234 17.1723 1.66675 16.7483 1.66675 16.3063V5.47298C1.66675 5.03095 1.84234 4.60703 2.1549 4.29447C2.46746 3.98191 2.89139 3.80632 3.33341 3.80632ZM15.0001 6.30631C15.2211 6.30631 15.4331 6.39411 15.5893 6.55039C15.7456 6.70667 15.8334 6.91863 15.8334 7.13965C15.8334 7.36066 15.7456 7.57262 15.5893 7.7289C15.4331 7.88518 15.2211 7.97298 15.0001 7.97298C14.7791 7.97298 14.5671 7.88518 14.4108 7.7289C14.2545 7.57262 14.1667 7.36066 14.1667 7.13965C14.1667 6.91863 14.2545 6.70667 14.4108 6.55039C14.5671 6.39411 14.7791 6.30631 15.0001 6.30631ZM11.6667 6.30631C11.8878 6.30631 12.0997 6.39411 12.256 6.55039C12.4123 6.70667 12.5001 6.91863 12.5001 7.13965C12.5001 7.36066 12.4123 7.57262 12.256 7.7289C12.0997 7.88518 11.8878 7.97298 11.6667 7.97298C11.4457 7.97298 11.2338 7.88518 11.0775 7.7289C10.9212 7.57262 10.8334 7.36066 10.8334 7.13965C10.8334 6.91863 10.9212 6.70667 11.0775 6.55039C11.2338 6.39411 11.4457 6.30631 11.6667 6.30631ZM16.6667 5.47298H3.33341V8.80631H16.6667V5.47298ZM3.33341 16.3063H16.6667V10.473H3.33341V16.3063ZM5.00008 6.30631C5.2211 6.30631 5.43306 6.39411 5.58934 6.55039C5.74562 6.70667 5.83341 6.91863 5.83341 7.13965C5.83341 7.36066 5.74562 7.57262 5.58934 7.7289C5.43306 7.88518 5.2211 7.97298 5.00008 7.97298C4.77907 7.97298 4.56711 7.88518 4.41083 7.7289C4.25455 7.57262 4.16675 7.36066 4.16675 7.13965C4.16675 6.91863 4.25455 6.70667 4.41083 6.55039C4.56711 6.39411 4.77907 6.30631 5.00008 6.30631ZM10.8334 12.1396H12.5001L15.0001 14.6396H13.3334L10.8334 12.1396Z" fill="#171E1D"/>
</svg>
