<svg width="20" height="21" viewBox="0 0 20 21" fill="none" xmlns="http://www.w3.org/2000/svg">
<path d="M9.40629 11.9505L8.47461 12.8822L9.4043 14.7415L10.319 13.776L9.40629 11.9505ZM9.99914 15.9312L10.8702 17.6734L11.785 16.7078L10.9139 14.9656L9.99914 15.9312ZM17.1455 8.38776L16.2422 9.34135L17.9775 10.1713L18.8809 9.21768L17.1455 8.38776ZM13.3829 7.97385L15.0572 8.77459L15.9606 7.82104L14.3203 7.03651L13.3829 7.97385ZM12.0229 13.795L13.137 15.2806L14.0091 14.3601L12.8949 12.8745L12.0229 13.795ZM12.1341 11.8601L11.0038 10.353L10.1109 11.2458L11.262 12.7806L12.1341 11.8601ZM11.7478 9.60901L13.1807 10.7554L14.0434 9.84471L12.6371 8.71967L11.7478 9.60901ZM14.1602 11.539L15.5946 12.6865L16.4573 11.7758L15.0229 10.6283L14.1602 11.539ZM13.6206 4.406L12.5956 5.43096L11.63 4.46541C11.2252 4.06057 10.7446 3.73944 10.2156 3.52034C9.6867 3.30124 9.11977 3.18848 8.54725 3.18848C7.97472 3.18848 7.4078 3.30124 6.87885 3.52034C6.3499 3.73944 5.86929 4.06057 5.46445 4.46541C5.45109 4.47873 5.43816 4.49233 5.42504 4.5058C4.96891 4.18446 4.43327 3.99459 3.87658 3.9569C3.3199 3.91922 2.76356 4.03517 2.26828 4.2921C1.773 4.54903 1.35781 4.93707 1.06802 5.41388C0.778235 5.89068 0.624986 6.43792 0.625 6.99588V16.4104H1.875V6.99588C1.87499 6.66853 1.96445 6.34741 2.13372 6.06722C2.30298 5.78703 2.5456 5.55844 2.83536 5.40614C3.12512 5.25384 3.451 5.18364 3.77777 5.20312C4.10453 5.2226 4.41976 5.33102 4.68937 5.51666C4.25692 6.34053 4.09889 7.28099 4.23831 8.20096C4.37773 9.12093 4.80731 9.97233 5.46445 10.6311L6.42996 11.5966L5.49559 12.531L6.27684 13.3122L14.4018 5.18725L13.6206 4.406ZM7.2268 10.6257L6.34832 9.74721C5.77079 9.16285 5.44797 8.37369 5.45038 7.55209C5.45278 6.7305 5.78022 5.94325 6.36117 5.36228C6.94211 4.78131 7.72936 4.45385 8.55095 4.45141C9.37254 4.44898 10.1617 4.77177 10.7461 5.34928L11.6246 6.22779L7.2268 10.6257Z" fill="black"/>
</svg>
