<svg width="20" height="21" viewBox="0 0 20 21" fill="none" xmlns="http://www.w3.org/2000/svg">
<path d="M3.33337 11.9731C3.33337 11.0704 3.53476 10.1779 3.93754 9.29564C4.34032 8.41342 4.84726 7.56981 5.45837 6.76481C6.06949 5.95926 6.73282 5.20231 7.44837 4.49398C8.16393 3.78564 8.82699 3.16064 9.43754 2.61898C9.52087 2.54953 9.61115 2.49759 9.70837 2.46314C9.8056 2.4287 9.90282 2.4112 10 2.41064C10.1112 2.41064 10.2117 2.42814 10.3017 2.46314C10.3917 2.49814 10.4717 2.55009 10.5417 2.61898C11.625 3.57731 12.705 4.64676 13.7817 5.82731C14.8584 7.00787 15.6603 8.28564 16.1875 9.66064H14.375C13.9862 8.86898 13.4306 8.03203 12.7084 7.14981C11.9862 6.26759 11.0834 5.3337 10 4.34814C8.34726 5.86203 7.10087 7.25787 6.26087 8.53565C5.42087 9.81342 5.0006 10.9593 5.00004 11.9731C5.00004 13.4593 5.47226 14.692 6.41671 15.6715C7.36115 16.6509 8.5556 17.1404 10 17.1398V18.8065C8.09726 18.8065 6.51032 18.1537 5.23921 16.8481C3.9681 15.5426 3.33282 13.9176 3.33337 11.9731ZM12.8959 18.9523C12.7431 19.0218 12.5867 19.0254 12.4267 18.9631C12.2667 18.9009 12.1523 18.7931 12.0834 18.6398L11.9792 18.4106C11.8681 18.1745 11.7881 17.9281 11.7392 17.6715C11.6903 17.4148 11.6662 17.1543 11.6667 16.8898C11.6667 16.5843 11.7014 16.2823 11.7709 15.984C11.8403 15.6856 11.9445 15.3973 12.0834 15.119C12.1945 14.8829 12.2917 14.6434 12.375 14.4006C12.4584 14.1579 12.5 13.9043 12.5 13.6398C12.5 13.4315 12.4756 13.2301 12.4267 13.0356C12.3778 12.8412 12.312 12.6468 12.2292 12.4523L12.2084 12.4106C12.1389 12.2579 12.1353 12.0981 12.1975 11.9315C12.2598 11.7648 12.3675 11.6468 12.5209 11.5773C12.6737 11.5079 12.8298 11.5045 12.9892 11.5673C13.1487 11.6301 13.2634 11.7376 13.3334 11.8898L13.4375 12.0773C13.5487 12.3134 13.6287 12.5634 13.6775 12.8273C13.7264 13.0912 13.7506 13.362 13.75 13.6398C13.75 13.9454 13.7153 14.244 13.6459 14.5356C13.5764 14.8273 13.4723 15.112 13.3334 15.3898C13.2223 15.6259 13.125 15.869 13.0417 16.119C12.9584 16.369 12.9167 16.6259 12.9167 16.8898C12.9167 17.0843 12.9375 17.2754 12.9792 17.4631C13.0209 17.6509 13.0834 17.8348 13.1667 18.0148L13.2084 18.119C13.2778 18.2718 13.2814 18.4315 13.2192 18.5981C13.157 18.7648 13.0492 18.8829 12.8959 18.9523ZM15.3959 18.9523C15.2431 19.0218 15.0867 19.0254 14.9267 18.9631C14.7667 18.9009 14.6523 18.7931 14.5834 18.6398L14.4792 18.4106C14.3681 18.1745 14.2881 17.9281 14.2392 17.6715C14.1903 17.4148 14.1662 17.1543 14.1667 16.8898C14.1667 16.5843 14.2014 16.2823 14.2709 15.984C14.3403 15.6856 14.4445 15.3973 14.5834 15.119C14.6945 14.8829 14.7917 14.6434 14.875 14.4006C14.9584 14.1579 15 13.9043 15 13.6398C15 13.4315 14.9756 13.2301 14.9267 13.0356C14.8778 12.8412 14.812 12.6468 14.7292 12.4523L14.7084 12.4106C14.6389 12.2579 14.6356 12.0981 14.6984 11.9315C14.7612 11.7648 14.8687 11.6468 15.0209 11.5773C15.1737 11.5079 15.33 11.5045 15.49 11.5673C15.65 11.6301 15.7645 11.7376 15.8334 11.8898L15.9375 12.0773C16.0487 12.3273 16.1287 12.5809 16.1775 12.8381C16.2264 13.0954 16.2506 13.3626 16.25 13.6398C16.25 13.9454 16.2153 14.244 16.1459 14.5356C16.0764 14.8273 15.9723 15.112 15.8334 15.3898C15.7223 15.6259 15.625 15.869 15.5417 16.119C15.4584 16.369 15.4167 16.6259 15.4167 16.8898C15.4167 17.0843 15.4375 17.2754 15.4792 17.4631C15.5209 17.6509 15.5834 17.8348 15.6667 18.0148L15.7084 18.119C15.7778 18.2718 15.7814 18.4315 15.7192 18.5981C15.657 18.7648 15.5492 18.8829 15.3959 18.9523ZM17.5209 11.5773C17.6737 11.5079 17.83 11.5045 17.99 11.5673C18.15 11.6301 18.2645 11.7376 18.3334 11.8898L18.4375 12.0773C18.5487 12.3134 18.6287 12.5634 18.6775 12.8273C18.7264 13.0912 18.7506 13.362 18.75 13.6398C18.75 13.9454 18.7153 14.2476 18.6459 14.5465C18.5764 14.8454 18.4723 15.1331 18.3334 15.4098C18.2223 15.6459 18.125 15.8856 18.0417 16.129C17.9584 16.3723 17.9167 16.6256 17.9167 16.889C17.9167 17.0834 17.9375 17.2745 17.9792 17.4623C18.0209 17.6501 18.0834 17.834 18.1667 18.014L18.2084 18.1181C18.25 18.2015 18.2709 18.2848 18.2709 18.3681C18.2709 18.4515 18.257 18.5279 18.2292 18.5973C18.2014 18.6668 18.1598 18.7329 18.1042 18.7956C18.0487 18.8584 17.9792 18.9104 17.8959 18.9515C17.7431 19.0209 17.5867 19.0245 17.4267 18.9623C17.2667 18.9001 17.1523 18.7926 17.0834 18.6398L16.9792 18.4106C16.8681 18.1745 16.7881 17.9281 16.7392 17.6715C16.6903 17.4148 16.6662 17.1543 16.6667 16.8898C16.6667 16.5843 16.7014 16.2823 16.7709 15.984C16.8403 15.6856 16.9445 15.3973 17.0834 15.119C17.1945 14.8829 17.2917 14.6434 17.375 14.4006C17.4584 14.1579 17.5 13.9043 17.5 13.6398C17.5 13.4315 17.4756 13.2301 17.4267 13.0356C17.3778 12.8412 17.312 12.6468 17.2292 12.4523L17.2084 12.4106C17.1389 12.2579 17.1356 12.0981 17.1984 11.9315C17.2612 11.7648 17.3687 11.6468 17.5209 11.5773Z" fill="#171E1D"/>
</svg>
