<svg width="20" height="21" viewBox="0 0 20 21" fill="none" xmlns="http://www.w3.org/2000/svg">
<path d="M11.7292 17.3481C11.5765 17.5287 11.3856 17.6295 11.1567 17.6506C10.9279 17.6718 10.7229 17.6056 10.5417 17.4523L7.35425 14.7856C6.6598 14.2023 6.1598 13.494 5.85425 12.6606C5.54869 11.8273 5.4723 10.9731 5.62508 10.0981L4.45841 9.11898C4.29175 8.9662 4.19814 8.78203 4.17758 8.56648C4.15703 8.35092 4.21564 8.15314 4.35341 7.97314H3.33341V9.63981C3.33341 10.0981 3.17008 10.4906 2.84341 10.8173C2.51675 11.144 2.12453 11.307 1.66675 11.3065V2.97314C2.12508 2.97314 2.51758 3.13648 2.84425 3.46314C3.17091 3.78981 3.33397 4.18203 3.33341 4.63981V6.30648H5.72925L7.02091 4.74398C7.17369 4.56342 7.3648 4.46259 7.59425 4.44148C7.82369 4.42037 8.02841 4.48648 8.20842 4.63981L9.35425 5.59814C10.2015 5.2787 11.0626 5.19537 11.9376 5.34814C12.8126 5.50092 13.5973 5.86898 14.2917 6.45231L17.4792 9.11898C17.6598 9.27176 17.7606 9.46287 17.7817 9.69231C17.8029 9.92176 17.7367 10.1195 17.5834 10.2856L11.7292 17.3481ZM10.9792 15.619L15.7917 9.84814L13.2084 7.72314C12.6251 7.25092 11.962 7.02176 11.2192 7.03564C10.4765 7.04953 9.75064 7.20231 9.04175 7.49398L7.77091 6.45231L6.16675 8.36898L7.41675 9.41064C7.25008 10.1606 7.22925 10.9073 7.35425 11.6506C7.47925 12.394 7.83342 13.0084 8.41675 13.494L10.9792 15.619Z" fill="#171E1D"/>
</svg>
