<svg width="20" height="21" viewBox="0 0 20 21" fill="none" xmlns="http://www.w3.org/2000/svg">
<g clip-path="url(#clip0_5592_2007)">
<path d="M3.32495 8.16731H8.33162C8.77409 8.16731 9.19843 8.34308 9.51131 8.65595C9.82418 8.96883 9.99995 9.39317 9.99995 9.83564V18.1798C9.99995 18.6223 9.82418 19.0466 9.51131 19.3595C9.19843 19.6724 8.77409 19.8481 8.33162 19.8481H3.32495C2.40328 19.8481 1.65662 19.1015 1.65662 18.1798V9.83564C1.65662 9.39317 1.83239 8.96883 2.14526 8.65595C2.45813 8.34308 2.88248 8.16731 3.32495 8.16731ZM3.32495 8.16731H8.33328V6.31064C8.33317 6.22565 8.31631 6.14152 8.28366 6.06305C8.25101 5.98458 8.20321 5.91331 8.14299 5.85333C8.08278 5.79335 8.01133 5.74582 7.93274 5.71348C7.85414 5.68113 7.76994 5.66459 7.68495 5.66481H3.97162C3.80025 5.66481 3.6359 5.73283 3.51465 5.85392C3.3934 5.97501 3.32517 6.13928 3.32495 6.31064V8.16731ZM11.6666 2.76648L11.2941 2.02064C11.1559 1.74356 10.9431 1.51048 10.6798 1.34753C10.4165 1.18459 10.1129 1.09823 9.80328 1.09814H2.49078M5.82828 12.339V15.6765M4.15995 14.0081H7.49662M5.82828 1.09814V5.66481M18.3433 12.7565C18.3433 13.5309 18.0356 14.2736 17.488 14.8212C16.9404 15.3688 16.1977 15.6765 15.4233 15.6765C14.6488 15.6765 13.9061 15.3688 13.3585 14.8212C12.8109 14.2736 12.5033 13.5309 12.5033 12.7565C12.5033 10.5665 15.4199 6.91564 15.4199 6.91564C15.4199 6.91564 18.3433 10.5665 18.3433 12.7565Z" stroke="#171E1D" stroke-width="1.5" stroke-linecap="round" stroke-linejoin="round"/>
</g>
<defs>
<clipPath id="clip0_5592_2007">
<rect width="20" height="20" fill="white" transform="translate(0 0.473145)"/>
</clipPath>
</defs>
</svg>
