<svg width="20" height="21" viewBox="0 0 20 21" fill="none" xmlns="http://www.w3.org/2000/svg">
<path d="M5.00004 18.8063C4.54171 18.8063 4.14921 18.643 3.82254 18.3163C3.49588 17.9896 3.33282 17.5974 3.33338 17.1396V3.80632C3.33338 3.34798 3.49671 2.95548 3.82338 2.62882C4.15004 2.30215 4.54226 2.13909 5.00004 2.13965H16.6667V3.80632H15V5.47298C15 5.70909 14.92 5.90715 14.76 6.06715C14.6 6.22715 14.4023 6.30687 14.1667 6.30632H7.50004C7.26393 6.30632 7.06588 6.22632 6.90588 6.06632C6.74588 5.90632 6.66615 5.70854 6.66671 5.47298V3.80632H5.00004V17.1396H8.37504C7.84726 16.7646 7.4306 16.2888 7.12504 15.7122C6.81949 15.1355 6.66671 14.5002 6.66671 13.8063V9.63965H15V13.8063C15 14.5008 14.8473 15.1363 14.5417 15.713C14.2362 16.2896 13.8195 16.7652 13.2917 17.1396H16.6667V18.8063H5.00004ZM10.8334 16.3063C11.5278 16.3063 12.1181 16.0633 12.6042 15.5771C13.0903 15.091 13.3334 14.5008 13.3334 13.8063V11.3063H8.33338V13.8063C8.33338 14.5008 8.57643 15.091 9.06254 15.5771C9.54865 16.0633 10.1389 16.3063 10.8334 16.3063ZM10.8334 8.80632C11.0695 8.80632 11.2675 8.72632 11.4275 8.56632C11.5875 8.40632 11.6673 8.20854 11.6667 7.97298C11.6667 7.73687 11.5867 7.53882 11.4267 7.37882C11.2667 7.21882 11.0689 7.13909 10.8334 7.13965C10.5973 7.13965 10.3992 7.21965 10.2392 7.37965C10.0792 7.53965 9.99949 7.73743 10 7.97298C10 8.20909 10.08 8.40715 10.24 8.56715C10.4 8.72715 10.5978 8.80687 10.8334 8.80632Z" fill="#171E1D"/>
</svg>
