<svg width="20" height="21" viewBox="0 0 20 21" fill="none" xmlns="http://www.w3.org/2000/svg">
<path d="M18.75 9.22314H17.9062L15.7359 4.34033C15.6377 4.11942 15.4775 3.93172 15.2748 3.79999C15.0721 3.66826 14.8355 3.59815 14.5938 3.59814H5.40625C5.16448 3.59815 4.92791 3.66826 4.72518 3.79999C4.52245 3.93172 4.36228 4.11942 4.26406 4.34033L2.09375 9.22314H1.25C1.08424 9.22314 0.925268 9.28899 0.808058 9.4062C0.690848 9.52341 0.625 9.68238 0.625 9.84814C0.625 10.0139 0.690848 10.1729 0.808058 10.2901C0.925268 10.4073 1.08424 10.4731 1.25 10.4731H1.875V16.7231C1.875 17.0547 2.0067 17.3726 2.24112 17.607C2.47554 17.8414 2.79348 17.9731 3.125 17.9731H5C5.33152 17.9731 5.64946 17.8414 5.88388 17.607C6.1183 17.3726 6.25 17.0547 6.25 16.7231V15.4731H13.75V16.7231C13.75 17.0547 13.8817 17.3726 14.1161 17.607C14.3505 17.8414 14.6685 17.9731 15 17.9731H16.875C17.2065 17.9731 17.5245 17.8414 17.7589 17.607C17.9933 17.3726 18.125 17.0547 18.125 16.7231V10.4731H18.75C18.9158 10.4731 19.0747 10.4073 19.1919 10.2901C19.3092 10.1729 19.375 10.0139 19.375 9.84814C19.375 9.68238 19.3092 9.52341 19.1919 9.4062C19.0747 9.28899 18.9158 9.22314 18.75 9.22314ZM5.40625 4.84814H14.5938L16.5383 9.22314H3.46172L5.40625 4.84814ZM5 16.7231H3.125V15.4731H5V16.7231ZM15 16.7231V15.4731H16.875V16.7231H15ZM16.875 14.2231H3.125V10.4731H16.875V14.2231ZM4.375 12.3481C4.375 12.1824 4.44085 12.0234 4.55806 11.9062C4.67527 11.789 4.83424 11.7231 5 11.7231H6.25C6.41576 11.7231 6.57473 11.789 6.69194 11.9062C6.80915 12.0234 6.875 12.1824 6.875 12.3481C6.875 12.5139 6.80915 12.6729 6.69194 12.7901C6.57473 12.9073 6.41576 12.9731 6.25 12.9731H5C4.83424 12.9731 4.67527 12.9073 4.55806 12.7901C4.44085 12.6729 4.375 12.5139 4.375 12.3481ZM13.125 12.3481C13.125 12.1824 13.1908 12.0234 13.3081 11.9062C13.4253 11.789 13.5842 11.7231 13.75 11.7231H15C15.1658 11.7231 15.3247 11.789 15.4419 11.9062C15.5592 12.0234 15.625 12.1824 15.625 12.3481C15.625 12.5139 15.5592 12.6729 15.4419 12.7901C15.3247 12.9073 15.1658 12.9731 15 12.9731H13.75C13.5842 12.9731 13.4253 12.9073 13.3081 12.7901C13.1908 12.6729 13.125 12.5139 13.125 12.3481Z" fill="black"/>
</svg>
