<svg width="20" height="21" viewBox="0 0 20 21" fill="none" xmlns="http://www.w3.org/2000/svg">
<g clip-path="url(#clip0_5592_2011)">
<path d="M17.0547 4.24966L12.3141 2.82779L14.6578 1.65591C14.8059 1.58132 14.9182 1.45097 14.9701 1.29355C15.0221 1.13612 15.0094 0.964505 14.9348 0.816461C14.8602 0.668416 14.7298 0.556066 14.5724 0.504128C14.415 0.452189 14.2434 0.464915 14.0953 0.539508L10.4688 2.35201C8.8389 2.39436 7.28996 3.07129 6.15177 4.23866C5.01359 5.40603 4.37608 6.9716 4.375 8.60201V16.7231C4.375 16.8889 4.44085 17.0478 4.55806 17.165C4.67527 17.2823 4.83424 17.3481 5 17.3481C5.16576 17.3481 5.32473 17.2823 5.44194 17.165C5.55915 17.0478 5.625 16.8889 5.625 16.7231V14.2231H6.875V18.5981C6.875 18.9296 7.0067 19.2476 7.24112 19.482C7.47554 19.7164 7.79348 19.8481 8.125 19.8481H13.125C13.4565 19.8481 13.7745 19.7164 14.0089 19.482C14.2433 19.2476 14.375 18.9296 14.375 18.5981V8.5981C14.3738 7.71231 14.0594 6.85547 13.4876 6.17899C12.9158 5.50251 12.1232 5.04993 11.25 4.90123V3.81294L16.6953 5.44654C16.7745 5.47234 16.8581 5.48204 16.9411 5.47509C17.0241 5.46813 17.1049 5.44465 17.1787 5.40603C17.2525 5.36741 17.3178 5.31443 17.3708 5.2502C17.4239 5.18597 17.4635 5.11178 17.4875 5.032C17.5114 4.95223 17.5192 4.86847 17.5103 4.78565C17.5014 4.70282 17.4761 4.62261 17.4358 4.54973C17.3955 4.47684 17.341 4.41275 17.2755 4.36122C17.2101 4.30969 17.135 4.27176 17.0547 4.24966ZM5.625 12.9731V8.5981C5.62652 7.38083 6.07155 6.20583 6.87683 5.293C7.68211 4.38016 8.79243 3.79205 10 3.63873V4.90123C9.12678 5.04993 8.33423 5.50251 7.7624 6.17899C7.19056 6.85547 6.87625 7.71231 6.875 8.5981V12.9731H5.625ZM13.125 18.5981H8.125V14.2231H13.125V18.5981ZM13.125 8.5981V12.9731H8.125V8.5981C8.125 7.93506 8.38839 7.29918 8.85723 6.83033C9.32607 6.36149 9.96196 6.0981 10.625 6.0981C11.288 6.0981 11.9239 6.36149 12.3928 6.83033C12.8616 7.29918 13.125 7.93506 13.125 8.5981Z" fill="#171E1D"/>
</g>
<defs>
<clipPath id="clip0_5592_2011">
<rect width="20" height="20" fill="white" transform="translate(0 0.473145)"/>
</clipPath>
</defs>
</svg>
