<svg width="20" height="21" viewBox="0 0 20 21" fill="none" xmlns="http://www.w3.org/2000/svg">
<path d="M13.541 12.36C12.5686 11.4956 11.3127 11.0181 10.0115 11.0181C8.71039 11.0181 7.4545 11.4956 6.48203 12.36C6.39986 12.4311 6.33263 12.5178 6.28426 12.6151C6.23588 12.7124 6.20732 12.8184 6.20023 12.9268C6.19315 13.0353 6.20767 13.144 6.24297 13.2468C6.27827 13.3496 6.33363 13.4443 6.40585 13.5255C6.47807 13.6067 6.5657 13.6727 6.66365 13.7198C6.76161 13.7668 6.86793 13.7939 6.97645 13.7995C7.08497 13.8052 7.19353 13.7891 7.29581 13.7525C7.39809 13.7158 7.49206 13.6591 7.57227 13.5858C8.24438 12.9884 9.11233 12.6585 10.0115 12.6585C10.9107 12.6585 11.7787 12.9884 12.4508 13.5858C12.6134 13.7304 12.8269 13.8044 13.0441 13.7916C13.2613 13.7788 13.4646 13.6803 13.6092 13.5176C13.7538 13.355 13.8278 13.1415 13.815 12.9243C13.8022 12.7071 13.7037 12.5038 13.541 12.3592V12.36Z" fill="#171E1D"/>
<path d="M10.0109 7.64893C7.80846 7.6459 5.68777 8.48299 4.08121 9.98956C3.99987 10.0624 3.9339 10.1508 3.88716 10.2495C3.84042 10.3482 3.81386 10.4552 3.80903 10.5643C3.8042 10.6734 3.82121 10.7824 3.85904 10.8848C3.89688 10.9872 3.95479 11.0811 4.02938 11.1609C4.10397 11.2406 4.19373 11.3047 4.2934 11.3493C4.39308 11.3939 4.50065 11.4182 4.60983 11.4207C4.719 11.4232 4.82758 11.4038 4.92918 11.3638C5.03079 11.3238 5.12338 11.2639 5.20153 11.1876C6.50601 9.96802 8.22511 9.28957 10.0109 9.28957C11.7967 9.28957 13.5158 9.96802 14.8203 11.1876C14.8984 11.2639 14.991 11.3238 15.0926 11.3638C15.1942 11.4038 15.3028 11.4232 15.412 11.4207C15.5211 11.4182 15.6287 11.3939 15.7284 11.3493C15.8281 11.3047 15.9178 11.2406 15.9924 11.1609C16.067 11.0811 16.1249 10.9872 16.1628 10.8848C16.2006 10.7824 16.2176 10.6734 16.2128 10.5643C16.2079 10.4552 16.1814 10.3482 16.1346 10.2495C16.0879 10.1508 16.0219 10.0624 15.9406 9.98956C14.334 8.48299 12.2133 7.6459 10.0109 7.64893Z" fill="#171E1D"/>
<path d="M18.0469 7.34267C15.8353 5.36938 12.9749 4.27881 10.011 4.27881C7.04699 4.27881 4.18663 5.36938 1.97502 7.34267C1.8919 7.41367 1.82381 7.50057 1.77475 7.59826C1.72569 7.69594 1.69665 7.80245 1.68934 7.91152C1.68202 8.02059 1.69659 8.13003 1.73216 8.23339C1.76774 8.33675 1.82362 8.43196 1.89652 8.51342C1.96941 8.59488 2.05786 8.66095 2.15665 8.70775C2.25544 8.75455 2.36259 8.78113 2.4718 8.78592C2.58101 8.79072 2.69008 8.77365 2.79259 8.7357C2.89511 8.69775 2.98901 8.63969 3.06877 8.56494C4.97956 6.86079 7.45044 5.91902 10.0108 5.91902C12.5711 5.91902 15.042 6.86079 16.9528 8.56494C17.1149 8.70998 17.3281 8.78465 17.5453 8.77252C17.7626 8.7604 17.9661 8.66247 18.1111 8.50029C18.2562 8.3381 18.3309 8.12494 18.3187 7.9077C18.3066 7.69046 18.2087 7.48693 18.0465 7.34189L18.0469 7.34267Z" fill="#171E1D"/>
<path d="M10.011 17.0908C10.7013 17.0908 11.261 16.5312 11.261 15.8408C11.261 15.1505 10.7013 14.5908 10.011 14.5908C9.32063 14.5908 8.76099 15.1505 8.76099 15.8408C8.76099 16.5312 9.32063 17.0908 10.011 17.0908Z" fill="#171E1D"/>
</svg>
