<svg width="36" height="37" viewBox="0 0 36 37" fill="none" xmlns="http://www.w3.org/2000/svg">
<rect y="0.473145" width="36" height="36" rx="6" fill="#00C29F"/>
<path d="M9.66663 11.473C9.66663 11.0063 9.66663 10.7729 9.75745 10.5947C9.83735 10.4379 9.96483 10.3104 10.1216 10.2305C10.2999 10.1396 10.5332 10.1396 11 10.1396H15C15.4667 10.1396 15.7 10.1396 15.8783 10.2305C16.0351 10.3104 16.1626 10.4379 16.2425 10.5947C16.3333 10.7729 16.3333 11.0063 16.3333 11.473V15.473C16.3333 15.9397 16.3333 16.173 16.2425 16.3513C16.1626 16.5081 16.0351 16.6356 15.8783 16.7155C15.7 16.8063 15.4667 16.8063 15 16.8063H11C10.5332 16.8063 10.2999 16.8063 10.1216 16.7155C9.96483 16.6356 9.83735 16.5081 9.75745 16.3513C9.66663 16.173 9.66663 15.9397 9.66663 15.473V11.473Z" stroke="white" stroke-width="1.5"/>
<path d="M9.66663 21.473C9.66663 21.0063 9.66663 20.7729 9.75745 20.5947C9.83735 20.4379 9.96483 20.3104 10.1216 20.2305C10.2999 20.1396 10.5332 20.1396 11 20.1396H15C15.4667 20.1396 15.7 20.1396 15.8783 20.2305C16.0351 20.3104 16.1626 20.4379 16.2425 20.5947C16.3333 20.7729 16.3333 21.0063 16.3333 21.473V25.473C16.3333 25.9397 16.3333 26.173 16.2425 26.3513C16.1626 26.5081 16.0351 26.6356 15.8783 26.7155C15.7 26.8063 15.4667 26.8063 15 26.8063H11C10.5332 26.8063 10.2999 26.8063 10.1216 26.7155C9.96483 26.6356 9.83735 26.5081 9.75745 26.3513C9.66663 26.173 9.66663 25.9397 9.66663 25.473V21.473Z" stroke="white" stroke-width="1.5"/>
<path d="M19.6666 11.473C19.6666 11.0063 19.6666 10.7729 19.7575 10.5947C19.8373 10.4379 19.9648 10.3104 20.1216 10.2305C20.2999 10.1396 20.5332 10.1396 21 10.1396H25C25.4667 10.1396 25.7 10.1396 25.8783 10.2305C26.0351 10.3104 26.1626 10.4379 26.2425 10.5947C26.3333 10.7729 26.3333 11.0063 26.3333 11.473V15.473C26.3333 15.9397 26.3333 16.173 26.2425 16.3513C26.1626 16.5081 26.0351 16.6356 25.8783 16.7155C25.7 16.8063 25.4667 16.8063 25 16.8063H21C20.5332 16.8063 20.2999 16.8063 20.1216 16.7155C19.9648 16.6356 19.8373 16.5081 19.7575 16.3513C19.6666 16.173 19.6666 15.9397 19.6666 15.473V11.473Z" stroke="white" stroke-width="1.5"/>
<path d="M19.6666 21.473C19.6666 21.0063 19.6666 20.7729 19.7575 20.5947C19.8373 20.4379 19.9648 20.3104 20.1216 20.2305C20.2999 20.1396 20.5332 20.1396 21 20.1396H25C25.4667 20.1396 25.7 20.1396 25.8783 20.2305C26.0351 20.3104 26.1626 20.4379 26.2425 20.5947C26.3333 20.7729 26.3333 21.0063 26.3333 21.473V25.473C26.3333 25.9397 26.3333 26.173 26.2425 26.3513C26.1626 26.5081 26.0351 26.6356 25.8783 26.7155C25.7 26.8063 25.4667 26.8063 25 26.8063H21C20.5332 26.8063 20.2999 26.8063 20.1216 26.7155C19.9648 26.6356 19.8373 26.5081 19.7575 26.3513C19.6666 26.173 19.6666 25.9397 19.6666 25.473V21.473Z" stroke="white" stroke-width="1.5"/>
</svg>
