<svg width="36" height="37" viewBox="0 0 36 37" fill="none" xmlns="http://www.w3.org/2000/svg">
<circle cx="18" cy="18.9731" r="17.5" fill="white" stroke="#E8ECF2"/>
<path fill-rule="evenodd" clip-rule="evenodd" d="M17.9945 14.0993C16.3417 12.1732 13.5856 11.6551 11.5148 13.4188C9.44402 15.1826 9.15248 18.1315 10.7787 20.2174C12.1308 21.9518 16.2226 25.6096 17.5637 26.7936C17.7138 26.926 17.7888 26.9922 17.8763 27.0183C17.9527 27.041 18.0362 27.041 18.1126 27.0183C18.2001 26.9922 18.2751 26.926 18.4252 26.7936C19.7663 25.6096 23.8581 21.9518 25.2102 20.2174C26.8364 18.1315 26.5805 15.164 24.4741 13.4188C22.3677 11.6737 19.6472 12.1732 17.9945 14.0993Z" stroke="#171E1D" stroke-width="1.5" stroke-linecap="round" stroke-linejoin="round"/>
</svg>
