<svg width="30" height="31" viewBox="0 0 30 31" fill="none" xmlns="http://www.w3.org/2000/svg">
<circle cx="15" cy="15.4731" r="15" fill="white"/>
<path fill-rule="evenodd" clip-rule="evenodd" d="M14.9953 11.4115C13.618 9.80639 11.3213 9.37462 9.59564 10.8444C7.86998 12.3142 7.62703 14.7716 8.9822 16.5099C10.1089 17.9552 13.5188 21.0034 14.6364 21.99C14.7614 22.1004 14.8239 22.1556 14.8969 22.1773C14.9605 22.1962 15.0302 22.1962 15.0938 22.1773C15.1667 22.1556 15.2292 22.1004 15.3543 21.99C16.4719 21.0034 19.8817 17.9552 21.0085 16.5099C22.3636 14.7716 22.1504 12.2987 20.395 10.8444C18.6397 9.39008 16.3726 9.80639 14.9953 11.4115Z" stroke="#171E1D" stroke-width="1.5" stroke-linecap="round" stroke-linejoin="round"/>
</svg>
