<svg width="20" height="21" viewBox="0 0 20 21" fill="none" xmlns="http://www.w3.org/2000/svg">
<path d="M10.0001 1.05811C7.26275 1.05811 5.03574 3.28511 5.03574 6.02246V9.00107H4.04287C2.94773 9.00107 2.05713 9.89167 2.05713 10.9868V18.9298C2.05713 20.0249 2.94773 20.9155 4.04287 20.9155H15.9573C17.0524 20.9155 17.9431 20.0249 17.9431 18.9298V10.9868C17.9431 9.89167 17.0524 9.00107 15.9573 9.00107H14.9644V6.02246C14.9644 3.28511 12.7374 1.05811 10.0001 1.05811ZM15.9573 10.9868L15.9593 18.9298H4.04287V10.9868H15.9573ZM7.02148 9.00107V6.02246C7.02148 4.38025 8.35788 3.04385 10.0001 3.04385C11.6423 3.04385 12.9787 4.38025 12.9787 6.02246V9.00107H7.02148Z" fill="#787878"/>
</svg>
