<svg width="20" height="21" viewBox="0 0 20 21" fill="none" xmlns="http://www.w3.org/2000/svg">
<path d="M18.7066 17.3084C18.2326 16.1857 17.5448 15.166 16.6814 14.3059C15.8207 13.4434 14.8011 12.7557 13.6789 12.2808C13.6689 12.2758 13.6588 12.2732 13.6488 12.2682C15.2141 11.1376 16.2317 9.29586 16.2317 7.21797C16.2317 3.77576 13.4427 0.986816 10.0005 0.986816C6.55831 0.986816 3.76937 3.77576 3.76937 7.21797C3.76937 9.29586 4.78695 11.1376 6.35228 12.2707C6.34223 12.2758 6.33218 12.2783 6.32213 12.2833C5.1965 12.7582 4.18645 13.4391 3.31962 14.3084C2.45708 15.1691 1.76938 16.1888 1.29449 17.3109C0.827964 18.4096 0.576356 19.5874 0.553285 20.7808C0.552615 20.8076 0.557318 20.8343 0.567119 20.8593C0.57692 20.8842 0.59162 20.907 0.610352 20.9262C0.629084 20.9454 0.65147 20.9606 0.67619 20.9711C0.700911 20.9815 0.727466 20.9868 0.754291 20.9868H2.26183C2.37238 20.9868 2.46032 20.8989 2.46283 20.7908C2.51308 18.8511 3.29198 17.0346 4.66886 15.6577C6.09349 14.233 7.98545 13.4491 10.0005 13.4491C12.0156 13.4491 13.9076 14.233 15.3322 15.6577C16.7091 17.0346 17.488 18.8511 17.5382 20.7908C17.5407 20.9014 17.6287 20.9868 17.7392 20.9868H19.2468C19.2736 20.9868 19.3001 20.9815 19.3249 20.9711C19.3496 20.9606 19.372 20.9454 19.3907 20.9262C19.4094 20.907 19.4241 20.8842 19.4339 20.8593C19.4437 20.8343 19.4484 20.8076 19.4478 20.7808C19.4226 19.5798 19.1739 18.4114 18.7066 17.3084ZM10.0005 11.5396C8.84726 11.5396 7.76183 11.0898 6.94525 10.2732C6.12866 9.45667 5.67891 8.37124 5.67891 7.21797C5.67891 6.06471 6.12866 4.97928 6.94525 4.1627C7.76183 3.34611 8.84726 2.89636 10.0005 2.89636C11.1538 2.89636 12.2392 3.34611 13.0558 4.1627C13.8724 4.97928 14.3221 6.06471 14.3221 7.21797C14.3221 8.37124 13.8724 9.45667 13.0558 10.2732C12.2392 11.0898 11.1538 11.5396 10.0005 11.5396Z" fill="#787878"/>
</svg>
