<svg width="13" height="19" viewBox="0 0 13 19" fill="none" xmlns="http://www.w3.org/2000/svg">
<path d="M9.82925 5.16747C9.67639 5.96791 8.90359 6.49287 8.10316 6.34001C7.30272 6.18715 6.77776 5.41435 6.93062 4.61392C7.08348 3.81348 7.85627 3.28851 8.65671 3.44137C9.45715 3.59423 9.98211 4.36703 9.82925 5.16747Z" fill="#00C29F"/>
<path d="M3.76027 18.4021C1.41727 17.5843 0.17214 15.0198 0.998966 12.6509C1.22383 12.0066 1.36365 11.6349 1.57951 10.9876C1.69796 10.6269 2.65952 9.00751 3.30949 8.56548C4.35217 7.85637 4.74441 7.79319 5.75289 7.6233C6.96736 7.41871 8.45006 7.93386 9.52614 7.47577C10.2641 7.16316 10.84 6.54783 11.1055 5.78725C11.1308 5.71472 11.152 5.64623 11.1697 5.57791C11.1823 5.53237 11.193 5.4862 11.2031 5.43982C11.2134 5.39282 11.2225 5.34541 11.2302 5.29818C11.2479 5.18745 11.2593 5.07726 11.2642 4.97026C11.3069 4.0205 10.8786 3.12032 10.1189 2.56323C10.0339 2.50073 9.94197 2.44061 9.84468 2.38614C9.80344 2.36286 9.76117 2.34059 9.71848 2.31953C9.67639 2.29869 9.63409 2.27846 9.59055 2.25984C9.52676 2.23142 9.4607 2.20563 9.38958 2.1808C9.31845 2.15598 9.25009 2.13485 9.18247 2.11741C9.1374 2.10509 9.0917 2.09461 9.04578 2.08474C8.99926 2.07465 8.95231 2.06579 8.90555 2.05835C8.87027 2.05288 8.83477 2.04801 8.80049 2.04356C8.7662 2.03911 8.73149 2.03589 8.69777 2.03369C8.66426 2.03088 8.63135 2.02828 8.59841 2.02773C8.53055 2.02455 8.4679 2.02388 8.40702 2.02587C7.45028 2.04882 6.54725 2.57662 6.05181 3.40325L6.05074 3.40629L6.04908 3.40913C6.03723 3.42756 6.02369 3.45086 6.00951 3.476C5.98614 3.51775 5.96377 3.56053 5.94261 3.60374C5.92165 3.64634 5.9013 3.68914 5.88255 3.73319C5.87581 3.74861 5.86929 3.76343 5.86316 3.77906C5.63305 4.05085 5.25505 4.15547 4.92171 4.03912C4.51966 3.89879 4.28357 3.49027 4.35942 3.06756C4.42118 2.92162 4.49202 2.77679 4.56882 2.63814L4.57463 2.62923C5.65173 0.701832 7.93134 -0.174125 9.99284 0.54541C11.1237 0.940102 12.0328 1.76062 12.5535 2.8551C13.0749 3.94978 13.1418 5.18191 12.7428 6.32523L9.50951 15.5887C8.68269 17.9576 6.10328 19.2199 3.76027 18.4021Z" fill="#00C29F"/>
</svg>
