<svg width="36" height="37" viewBox="0 0 36 37" fill="none" xmlns="http://www.w3.org/2000/svg">
<path d="M15.5 15.14V19.3066M20.5 17.64V21.8066M11.8668 24.8342L14.433 22.6957C15.0511 22.1806 15.9489 22.1806 16.567 22.6957L19.433 25.0841C20.0511 25.5991 20.9489 25.5991 21.567 25.0841L24.9003 22.3063C25.2803 21.9896 25.5 21.5206 25.5 21.0259V12.7524C25.5 12.0459 24.676 11.6599 24.1332 12.1122L21.567 14.2508C20.9489 14.7658 20.0511 14.7658 19.433 14.2507L16.567 11.8624C15.9489 11.3473 15.0511 11.3473 14.433 11.8624L11.0997 14.6402C10.7197 14.9568 10.5 15.4259 10.5 15.9205V24.194C10.5 24.9006 11.324 25.2865 11.8668 24.8342Z" stroke="#171E1D" stroke-width="1.5" stroke-linecap="round"/>
</svg>
